<svg width="64" height="46" viewBox="0 0 64 46" fill="none" xmlns="http://www.w3.org/2000/svg">
<path d="M62.4356 7.54098C61.705 4.76949 59.5524 2.58676 56.8192 1.84602C51.8652 0.5 32 0.5 32 0.5C32 0.5 12.135 0.5 7.18081 1.84602C4.44765 2.58687 2.29504 4.76949 1.56444 7.54098C0.237 12.5645 0.237 23.0455 0.237 23.0455C0.237 23.0455 0.237 33.5265 1.56444 38.55C2.29504 41.3214 4.44765 43.4132 7.18081 44.154C12.135 45.5 32 45.5 32 45.5C32 45.5 51.865 45.5 56.8192 44.154C59.5524 43.4132 61.705 41.3214 62.4356 38.55C63.763 33.5265 63.763 23.0455 63.763 23.0455C63.763 23.0455 63.763 12.5645 62.4356 7.54098ZM25.503 32.5614V13.5295L42.1063 23.0457L25.503 32.5614Z" fill="white"/>
</svg>
